<svg width="191" height="191" viewBox="0 0 191 191" fill="none" xmlns="http://www.w3.org/2000/svg">
<g clip-path="url(#clip0_1990_9203)">
<path d="M95.0369 46.8355C67.302 47.1115 45.0275 68.5711 45.2883 94.7642L45.3909 105.075L62.859 104.901C64.0172 104.889 65.1323 105.313 65.959 106.078C66.7857 106.843 67.2562 107.888 67.2671 108.982L67.6776 150.224C67.6885 151.318 67.2389 152.372 66.4276 153.153C65.6163 153.935 64.5099 154.38 63.3517 154.392L56.8011 154.457C51.5892 154.509 46.5713 152.603 42.8512 149.16C39.1312 145.716 37.0138 141.016 36.9648 136.094L36.5542 94.8512C36.2481 64.1008 62.3943 38.9111 94.9548 38.587C127.515 38.2628 154.158 62.9271 154.464 93.6774L154.874 134.92C154.923 139.842 152.9 144.583 149.249 148.1C145.598 151.618 140.619 153.623 135.408 153.675L128.857 153.74C127.699 153.751 126.584 153.328 125.757 152.563C124.93 151.797 124.46 150.753 124.449 149.659L124.038 108.417C124.028 107.323 124.477 106.269 125.288 105.488C126.1 104.706 127.206 104.26 128.364 104.249L145.832 104.075L145.73 93.7644C145.469 67.5713 122.772 46.5594 95.0369 46.8355Z" fill="white"/>
</g>
<defs>
<clipPath id="clip0_1990_9203">
<rect width="189" height="189" fill="white" transform="translate(0.548828 1.45361) rotate(-0.274195)"/>
</clipPath>
</defs>
</svg>
