<svg width="191" height="191" viewBox="0 0 191 191" fill="none" xmlns="http://www.w3.org/2000/svg">
<g clip-path="url(#clip0_1990_9190)">
<path d="M95.96 45.9641C68.2226 45.9641 45.7348 66.4678 45.7348 91.7579V101.713H63.2044C64.3628 101.713 65.4736 102.133 66.2927 102.879C67.1117 103.626 67.5719 104.639 67.5719 105.695V145.516C67.5719 146.572 67.1117 147.585 66.2927 148.332C65.4736 149.078 64.3628 149.498 63.2044 149.498H56.6533C51.4409 149.498 46.442 147.61 42.7563 144.249C39.0706 140.889 37 136.331 37 131.579V91.7579C37 62.0676 63.3966 38 95.96 38C128.523 38 154.92 62.0676 154.92 91.7579V131.579C154.92 136.331 152.849 140.889 149.164 144.249C145.478 147.61 140.479 149.498 135.267 149.498H128.716C127.557 149.498 126.446 149.078 125.627 148.332C124.808 147.585 124.348 146.572 124.348 145.516V105.695C124.348 104.639 124.808 103.626 125.627 102.879C126.446 102.133 127.557 101.713 128.716 101.713H146.185V91.7579C146.185 66.4678 123.697 45.9641 95.96 45.9641ZM100.327 97.731C100.327 96.6749 99.8673 95.6621 99.0482 94.9153C98.2292 94.1685 97.1183 93.749 95.96 93.749C94.8017 93.749 93.6908 94.1685 92.8718 94.9153C92.0527 95.6621 91.5926 96.6749 91.5926 97.731V149.498C91.5926 150.554 92.0527 151.567 92.8718 152.314C93.6908 153.06 94.8017 153.48 95.96 153.48C97.1183 153.48 98.2292 153.06 99.0482 152.314C99.8673 151.567 100.327 150.554 100.327 149.498V97.731ZM80.6741 109.677C81.8324 109.677 82.9432 110.097 83.7623 110.844C84.5813 111.59 85.0415 112.603 85.0415 113.659V133.57C85.0415 134.626 84.5813 135.639 83.7623 136.385C82.9432 137.132 81.8324 137.552 80.6741 137.552C79.5158 137.552 78.4049 137.132 77.5858 136.385C76.7668 135.639 76.3067 134.626 76.3067 133.57V113.659C76.3067 112.603 76.7668 111.59 77.5858 110.844C78.4049 110.097 79.5158 109.677 80.6741 109.677ZM115.613 113.659C115.613 112.603 115.153 111.59 114.334 110.844C113.515 110.097 112.404 109.677 111.246 109.677C110.088 109.677 108.977 110.097 108.158 110.844C107.339 111.59 106.879 112.603 106.879 113.659V133.57C106.879 134.626 107.339 135.639 108.158 136.385C108.977 137.132 110.088 137.552 111.246 137.552C112.404 137.552 113.515 137.132 114.334 136.385C115.153 135.639 115.613 134.626 115.613 133.57V113.659Z" fill="white"/>
</g>
<defs>
<clipPath id="clip0_1990_9190">
<rect width="189" height="189" fill="white" transform="translate(0.548828 1.45361) rotate(-0.274195)"/>
</clipPath>
</defs>
</svg>
